<?xml version="1.0" standalone="no"?>
<!DOCTYPE svg PUBLIC "-//W3C//DTD SVG 20010904//EN"
 "http://www.w3.org/TR/2001/REC-SVG-20010904/DTD/svg10.dtd">
<svg version="1.0" xmlns="http://www.w3.org/2000/svg"
 width="548.000000pt" height="548.000000pt" viewBox="0 0 548.000000 548.000000"
 preserveAspectRatio="xMidYMid meet">
<metadata>
Created by potrace 1.14, written by Peter Selinger 2001-2017
</metadata>
<g transform="translate(0.000000,548.000000) scale(0.100000,-0.100000)"
fill="#000000" stroke="none">
<path d="M2549 5476 c-2 -2 -39 -6 -82 -10 -101 -9 -292 -42 -387 -67 -41 -11
-91 -24 -111 -29 -61 -16 -210 -70 -309 -113 -244 -105 -450 -231 -681 -417
-90 -73 -315 -304 -386 -399 -7 -9 -27 -34 -44 -56 -45 -58 -149 -217 -201
-310 -127 -225 -234 -510 -289 -771 -23 -108 -25 -120 -43 -274 -13 -99 -14
-503 -2 -575 3 -16 8 -52 11 -80 45 -359 179 -737 378 -1065 40 -66 166 -247
189 -272 7 -7 45 -51 84 -98 93 -109 244 -255 354 -340 25 -19 47 -37 50 -40
3 -4 28 -21 55 -40 28 -19 52 -37 55 -40 21 -27 312 -188 440 -244 36 -15 80
-35 98 -43 40 -17 289 -100 323 -107 13 -3 67 -14 119 -25 219 -47 353 -59
605 -56 121 2 229 5 240 8 11 2 49 8 85 11 55 6 173 28 280 52 395 88 831 312
1155 594 62 54 245 239 295 299 25 29 50 58 55 65 22 23 153 213 192 276 145
237 279 562 328 795 3 11 9 40 15 65 40 179 55 340 55 580 0 206 -6 289 -35
453 -78 445 -255 849 -529 1207 -85 111 -105 134 -236 265 -130 131 -165 161
-290 255 -392 294 -842 473 -1350 535 -54 7 -480 16 -486 11z"/>
</g>
</svg>
